Coordinates
version=1
nRows=17
nColumns=40
inDegrees=yes

Units are S.I. units (second, meters, Newtons, ...)
Angles are in degrees.

endheader
time	pelvis_tilt	pelvis_list	pelvis_rotation	pelvis_tx	pelvis_ty	pelvis_tz	hip_flexion_r	hip_adduction_r	hip_rotation_r	knee_angle_r	knee_angle_r_beta	ankle_angle_r	subtalar_angle_r	mtp_angle_r	hip_flexion_l	hip_adduction_l	hip_rotation_l	knee_angle_l	knee_angle_l_beta	ankle_angle_l	subtalar_angle_l	mtp_angle_l	lumbar_extension	lumbar_bending	lumbar_rotation	arm_flex_r	arm_add_r	arm_rot_r	elbow_flex_r	pro_sup_r	wrist_flex_r	wrist_dev_r	arm_flex_l	arm_add_l	arm_rot_l	elbow_flex_l	pro_sup_l	wrist_flex_l	wrist_dev_l
      0.93000000	     -2.72706894	     -2.46019198	      6.48214810	     -0.69651675	      0.87845921	      1.45382661	     25.56730134	     -1.19616673	    -14.90559735	    -25.52260270	     -0.44545345	      0.98152896	     -8.40407036	      7.75532705	      2.95182732	      4.10756477	      3.30876248	    -35.81562516	     -0.62510058	     12.16072686	     10.66987287	     -2.98009335	     -2.31610844	      3.48082921	    -10.65388336	     -1.82187314	     -7.19673024	    -18.19527844	     22.10057685	     89.95437384	      0.00000000	      0.00000000	      3.95655481	     10.23503285	     15.74717971	     36.41558094	     89.95437384	      0.00000000	      0.00000000
      0.94000000	     -2.74952509	     -2.45706290	      6.27621778	     -0.68989029	      0.87935875	      1.45605832	     25.11915749	     -0.94290321	    -14.83023077	    -25.49367854	     -0.44494863	      1.28633231	     -8.06131985	      7.57040328	      3.43404806	      4.20333178	      2.87713600	    -37.27239201	     -0.65052596	     10.90274629	     11.37466336	     -2.77442109	     -2.20727703	      3.52029963	    -10.37346595	     -1.83617018	     -7.24211014	    -17.92931992	     22.16519905	     89.95437384	      0.00000000	      0.00000000	      3.66334444	     10.21060197	     15.71274063	     36.10395097	     89.95437384	      0.00000000	      0.00000000
      0.95000000	     -2.73189991	     -2.30688964	      5.94440682	     -0.68324531	      0.88030693	      1.45826289	     24.61411906	     -0.85906349	    -14.82232862	    -25.47668682	     -0.44465207	      1.57219585	     -7.76315914	      7.36120711	      3.85945752	      4.10361248	      2.47666965	    -38.79469261	     -0.67709512	      9.69199019	     11.63659209	     -2.58755328	     -2.18214415	      3.42234298	     -9.85624639	     -1.90161227	     -7.29314949	    -17.67590311	     22.33742536	     89.95437384	      0.00000000	      0.00000000	      3.33370262	     10.12718741	     15.65552217	     36.02414669	     89.95437384	      0.00000000	      0.00000000
      0.96000000	     -2.78444643	     -2.52077450	      5.84776931	     -0.67674950	      0.88114698	      1.46036346	     24.05687070	     -0.40905927	    -14.93269282	    -25.18342606	     -0.43953370	      2.16953194	     -7.39383465	      7.13192215	      4.72854763	      4.45854129	      2.14005966	    -40.69276340	     -0.71022270	      7.80500899	     12.76977893	     -2.22541967	     -2.00006605	      3.71451547	     -9.74357854	     -1.83814833	     -7.38829034	    -17.32040217	     22.45318048	     89.95437384	      0.00000000	      0.00000000	      2.97212419	     10.10827688	     15.51656551	     35.65853957	     89.95437384	      0.00000000	      0.00000000
      0.97000000	     -2.89006140	     -2.65735762	      5.68977807	     -0.67028844	      0.88181776	      1.46246790	     23.57558038	     -0.06450588	    -15.13514552	    -24.91645428	     -0.43487417	      2.42799372	     -6.86315595	      6.93652708	      5.70073035	      4.70622069	      1.81822891	    -42.67989216	     -0.74490464	      6.02575477	     13.60763898	     -1.84308559	     -1.78309127	      3.91562543	     -9.48636129	     -1.87798769	     -7.50652601	    -16.89494522	     22.66080193	     89.95437384	      0.00000000	      0.00000000	      2.62836702	     10.03462861	     15.43496501	     35.36808688	     89.95437384	      0.00000000	      0.00000000
      0.98000000	     -2.90837607	     -2.72240559	      5.51952426	     -0.66395931	      0.88252114	      1.46461230	     23.02673543	      0.20158114	    -15.32377769	    -24.70943630	     -0.43126102	      2.84125234	     -6.33037721	      6.70528453	      6.66677842	      4.92049527	      1.67198455	    -44.69823523	     -0.78013137	      4.09387810	     14.16283580	     -1.44136202	     -1.69451421	      4.02899932	     -9.20245120	     -1.88323649	     -7.59563082	    -16.49599208	     22.89188491	     89.95437384	      0.00000000	      0.00000000	      2.29948199	      9.99886519	     15.37399387	     35.10148033	     89.95437384	      0.00000000	      0.00000000
      0.99000000	     -2.87543209	     -2.82180968	      5.36793856	     -0.65773947	      0.88320577	      1.46683933	     22.41958156	      0.51748162	    -15.53671064	    -24.49010158	     -0.42743291	      3.32942720	     -5.82700724	      6.45518693	      7.66020554	      5.26100317	      1.68267620	    -46.79350351	     -0.81670070	      1.81797902	     14.78034789	     -0.98099398	     -1.68499121	      4.16213744	     -8.92383313	     -1.83438447	     -7.68275524	    -16.11056596	     23.10040227	     89.95437384	      0.00000000	      0.00000000	      2.00320783	      9.97568703	     15.33375514	     34.84047326	     89.95437384	      0.00000000	      0.00000000
      1.00000000	     -2.87952475	     -2.92093859	      5.20689511	     -0.65166749	      0.88372794	      1.46894806	     21.86584727	      0.80362380	    -15.77793822	    -24.25637035	     -0.42335353	      3.64500401	     -5.25348037	      6.22437681	      8.75388530	      5.55570050	      1.64581804	    -48.85869596	     -0.85274511	     -0.29636986	     15.18096923	     -0.48468382	     -1.65238199	      4.30601523	     -8.62729877	     -1.78204882	     -7.78843271	    -15.76181834	     23.34761578	     89.95437384	      0.00000000	      0.00000000	      1.72849474	      9.91356665	     15.33378940	     34.53680950	     89.95437384	      0.00000000	      0.00000000
      1.01000000	     -2.78667859	     -2.93657299	      5.04991288	     -0.64573617	      0.88432001	      1.47089635	     21.24762997	      0.99025677	    -15.98425452	    -24.12430439	     -0.42104854	      4.01455144	     -4.76064858	      5.99285218	      9.74287314	      5.79329773	      1.71180025	    -50.87501403	     -0.88793650	     -2.15747142	     15.41752424	     -0.04760367	     -1.76127515	      4.37544834	     -8.34760763	     -1.66315235	     -7.89043535	    -15.45775369	     23.61110821	     89.95437384	      0.00000000	      0.00000000	      1.44418542	      9.87626619	     15.32016748	     34.29937362	     89.95437384	      0.00000000	      0.00000000
      1.02000000	     -2.64558697	     -2.61153879	      4.66016028	     -0.64000087	      0.88494871	      1.47262937	     20.63252457	      0.80818463	    -16.12897363	    -24.06700823	     -0.42004853	      4.19157704	     -4.53679914	      5.82604603	     10.43162493	      5.53490454	      1.78330279	    -52.58661297	     -0.91780954	     -2.95190986	     15.20891401	      0.07419627	     -2.01921055	      4.09215072	     -7.74457704	     -1.50661390	     -8.02738899	    -15.28640100	     23.84670184	     89.95437384	      0.00000000	      0.00000000	      1.18985830	      9.79180018	     15.33093339	     34.24511837	     89.95437384	      0.00000000	      0.00000000
      1.03000000	     -2.71803041	     -3.04390812	      4.66835117	     -0.63428978	      0.88506983	      1.47469193	     20.18293888	      1.45007827	    -16.34209659	    -23.84536094	     -0.41618006	      4.91852905	     -3.67685482	      5.48638892	     11.85736718	      6.31467654	      1.85322278	    -54.71110735	     -0.95488896	     -4.23673570	     16.14321589	      0.69229206	     -1.89354712	      4.57895302	     -7.68810880	     -1.36821902	     -8.15801084	    -14.93841047	     24.13164739	     89.95437384	      0.00000000	      0.00000000	      0.92263986	      9.74574515	     15.35675507	     33.80141695	     89.95437384	      0.00000000	      0.00000000
      1.04000000	     -2.51380449	     -2.72608421	      4.39593857	     -0.62869312	      0.88571356	      1.47626530	     19.56298041	      1.24251171	    -16.39403635	    -23.90571339	     -0.41723341	      5.05039948	     -3.51361949	      5.33948973	     12.56522843	      6.17000297	      2.17585069	    -56.26330791	     -0.98197997	     -4.17982807	     16.06183157	      0.74928586	     -2.23239518	      4.29527469	     -7.25156295	     -1.13769809	     -8.25873344	    -14.81241372	     24.35393939	     89.95437384	      0.00000000	      0.00000000	      0.66203396	      9.69380965	     15.38042856	     33.67810288	     89.95437384	      0.00000000	      0.00000000
      1.05000000	     -2.56133920	     -3.11010952	      4.28092855	     -0.62343096	      0.88572890	      1.47811420	     19.21061921	      1.84930579	    -16.39203611	    -23.81394582	     -0.41563176	      5.69111435	     -2.82999579	      5.02297796	     13.86012953	      6.83992415	      2.39668499	    -58.10842143	     -1.01418328	     -3.26997098	     17.12405211	      1.24536606	     -2.21838399	      4.74729171	     -7.05525259	     -0.86167429	     -8.42262370	    -14.63023364	     24.57393425	     89.95437384	      0.00000000	      0.00000000	      0.42676275	      9.56513233	     15.58621836	     33.35819345	     89.95437384	      0.00000000	      0.00000000
      1.06000000	     -2.40898027	     -2.85579382	      4.06873525	     -0.61806374	      0.88626424	      1.47965069	     18.67054553	      1.72526756	    -16.38498956	    -23.86893021	     -0.41659142	      5.84309985	     -2.69190492	      4.88463223	     14.66548192	      6.81623400	      2.86315123	    -59.39164850	     -1.03657981	     -2.98852211	     17.23733514	      1.36385704	     -2.50943711	      4.51244865	     -6.74169966	     -0.55691612	     -8.50867231	    -14.52759384	     24.78660534	     89.95437384	      0.00000000	      0.00000000	      0.16528843	      9.53910165	     15.62901357	     33.17465565	     89.95437384	      0.00000000	      0.00000000
      1.07000000	     -2.37370223	     -3.01609313	      3.86601784	     -0.61285537	      0.88648331	      1.48119018	     18.26770603	      2.10616367	    -16.11298030	    -23.85539749	     -0.41635523	      6.32586874	     -2.30174910	      4.65007379	     15.71690345	      7.21220547	      3.18740990	    -60.71381277	     -1.05965593	     -2.07737452	     17.96395020	      1.77782834	     -2.62678201	      4.75189522	     -6.47112656	     -0.18653124	     -8.65536384	    -14.44666116	     24.92694737	     89.95437384	      0.00000000	      0.00000000	     -0.10071990	      9.39877267	     15.82354567	     32.86059183	     89.95437384	      0.00000000	      0.00000000
      1.08000000	     -2.25907994	     -2.75816228	      3.67601671	     -0.60774827	      0.88699905	      1.48256741	     17.77049508	      1.96630572	    -16.12164267	    -23.86245195	     -0.41647835	      6.43995758	     -2.24155573	      4.54394492	     16.56749601	      7.15136165	      3.63675613	    -61.68239752	     -1.07656093	     -1.85008359	     17.97012046	      1.87875412	     -2.90425803	      4.49136563	     -6.16127456	      0.11982951	     -8.73883945	    -14.38124488	     25.17244248	     89.95437384	      0.00000000	      0.00000000	     -0.38359691	      9.35505569	     15.87721092	     32.73592339	     89.95437384	      0.00000000	      0.00000000
      1.09000000	     -2.16088177	     -2.61881063	      3.47091772	     -0.60270761	      0.88744859	      1.48396713	     17.27819192	      1.98617358	    -16.02821712	    -23.82704175	     -0.41586033	      6.68044878	     -2.12885949	      4.42792247	     17.46279539	      7.20548356	      4.05821676	    -62.55600638	     -1.09180828	     -1.35189263	     18.24737680	      2.00917790	     -3.14569092	      4.36340905	     -5.91280429	      0.50936571	     -8.81912979	    -14.33972607	     25.34337078	     89.95437384	      0.00000000	      0.00000000	     -0.67594781	      9.30762730	     15.95728042	     32.51169562	     89.95437384	      0.00000000	      0.00000000
